<?xml version="1.0" encoding="UTF-8" standalone="no"?>
<!-- Created with Inkscape (http://www.inkscape.org/) -->

<svg
   width="139.58867mm"
   height="37.325478mm"
   viewBox="0 0 139.58867 37.325478"
   version="1.1"
   id="svg5"
   inkscape:version="1.1.2 (0a00cf5339, 2022-02-04)"
   sodipodi:docname="logo-pyrand-light.svg"
   inkscape:export-filename="/home/sia/work/ADCP/Noise-Estimation/code/pyrand/docs/source/_static/images/icons/logo-pyrand-light.png"
   inkscape:export-xdpi="100"
   inkscape:export-ydpi="100"
   xmlns:inkscape="http://www.inkscape.org/namespaces/inkscape"
   xmlns:sodipodi="http://sodipodi.sourceforge.net/DTD/sodipodi-0.dtd"
   xmlns="http://www.w3.org/2000/svg"
   xmlns:svg="http://www.w3.org/2000/svg">
  <sodipodi:namedview
     id="namedview7"
     pagecolor="#ffffff"
     bordercolor="#666666"
     borderopacity="1.0"
     inkscape:pageshadow="2"
     inkscape:pageopacity="0.0"
     inkscape:pagecheckerboard="0"
     inkscape:document-units="mm"
     showgrid="false"
     fit-margin-top="0"
     fit-margin-left="0"
     fit-margin-right="0"
     fit-margin-bottom="0"
     inkscape:zoom="0.42961102"
     inkscape:cx="407.34523"
     inkscape:cy="176.90421"
     inkscape:window-width="1920"
     inkscape:window-height="1006"
     inkscape:window-x="0"
     inkscape:window-y="25"
     inkscape:window-maximized="1"
     inkscape:current-layer="layer1" />
  <defs
     id="defs2" />
  <g
     inkscape:label="Layer 1"
     inkscape:groupmode="layer"
     id="layer1"
     transform="translate(-26.243889,-103.80796)">
    <path
       id="text3224"
       style="font-size:25.4px;line-height:1.25;font-family:sans-serif;fill:#16b6ba;fill-opacity:1;stroke-width:0.264583"
       sodipodi:type="inkscape:offset"
       inkscape:radius="-0.14356294"
       inkscape:original="M 61.576172 113.22656 C 60.706342 113.22656 59.860486 113.32784 59.039062 113.5332 C 58.232611 113.72858 57.458071 114.00476 56.71875 114.36133 C 55.979194 114.70986 55.273753 115.13292 54.603516 115.625 A 0.34024783 0.34024783 0 0 0 54.601562 115.625 C 54.151709 115.9595 53.752868 116.34664 53.345703 116.72461 L 53.345703 114 A 0.34024783 0.34024783 0 0 0 53.005859 113.66016 L 51.455078 113.66016 A 0.34024783 0.34024783 0 0 0 51.115234 114 L 51.115234 131.04102 A 0.34024783 0.34024783 0 0 0 51.455078 131.38086 L 53.005859 131.38086 A 0.34024783 0.34024783 0 0 0 53.345703 131.04102 L 53.345703 119.3457 C 53.794698 118.81326 54.28739 118.3058 54.839844 117.83008 A 0.34024783 0.34024783 0 0 0 54.841797 117.82812 C 55.418964 117.3231 56.043298 116.88088 56.716797 116.50391 C 57.394915 116.12894 58.125839 115.83576 58.912109 115.61914 A 0.34024783 0.34024783 0 0 0 58.914062 115.61914 C 59.700364 115.39675 60.541859 115.2832 61.439453 115.2832 C 62.09368 115.2832 62.618322 115.32894 63.003906 115.41211 A 0.34024783 0.34024783 0 0 0 63.011719 115.41406 C 63.435352 115.49553 63.762966 115.57117 63.980469 115.63867 A 0.34024783 0.34024783 0 0 0 64.421875 115.31445 L 64.421875 113.78906 A 0.34024783 0.34024783 0 0 0 64.142578 113.45508 C 63.95522 113.42102 63.77237 113.39243 63.595703 113.36719 C 63.420955 113.34223 63.233094 113.31958 63.035156 113.30273 C 62.83485 113.27661 62.615577 113.26063 62.380859 113.25195 L 62.369141 113.25195 C 62.130876 113.23522 61.868185 113.22656 61.576172 113.22656 z M 100.7168 113.25195 C 99.675871 113.25195 98.683174 113.36071 97.738281 113.58203 C 96.803784 113.80093 95.921 114.08277 95.091797 114.42969 C 94.277463 114.76558 93.51289 115.13997 92.796875 115.55273 C 92.288573 115.84321 91.844142 116.11728 91.396484 116.39062 L 91.396484 114 A 0.34024783 0.34024783 0 0 0 91.056641 113.66016 L 89.505859 113.66016 A 0.34024783 0.34024783 0 0 0 89.166016 114 L 89.166016 131.04102 A 0.34024783 0.34024783 0 0 0 89.505859 131.38086 L 91.056641 131.38086 A 0.34024783 0.34024783 0 0 0 91.396484 131.04102 L 91.396484 118.94727 C 91.84232 118.57988 92.362183 118.19806 92.998047 117.79688 C 93.675788 117.36924 94.422035 116.98212 95.234375 116.63281 A 0.34024783 0.34024783 0 0 0 95.236328 116.63086 C 96.045011 116.27504 96.902443 115.98288 97.810547 115.75586 A 0.34024783 0.34024783 0 0 0 97.8125 115.75586 C 98.719304 115.52314 99.642689 115.40625 100.58203 115.40625 C 101.39801 115.40625 102.12555 115.47462 102.76758 115.60938 C 103.39631 115.74133 103.91274 115.97056 104.33008 116.29102 A 0.34024783 0.34024783 0 0 0 104.33203 116.29297 C 104.7515 116.60942 105.07437 117.03633 105.30273 117.59961 A 0.34024783 0.34024783 0 0 0 105.30469 117.60547 C 105.53607 118.15036 105.66211 118.8813 105.66211 119.79297 L 105.66211 131.04102 A 0.34024783 0.34024783 0 0 0 106.00195 131.38086 L 107.55078 131.38086 A 0.34024783 0.34024783 0 0 0 107.89062 131.04102 L 107.89062 119.45703 C 107.89062 118.52831 107.74377 117.67971 107.44531 116.91602 C 107.14651 116.14266 106.68852 115.47853 106.08008 114.93945 C 105.47751 114.39005 104.7227 113.9745 103.82617 113.68945 L 103.82227 113.6875 C 102.92781 113.39281 101.89179 113.25195 100.7168 113.25195 z M 75.082031 113.34961 C 73.600554 113.34961 72.196935 113.46587 70.869141 113.70117 C 69.561799 113.926 68.327969 114.19513 67.167969 114.50391 A 0.34024783 0.34024783 0 0 0 66.916016 114.83203 L 66.916016 116.64258 A 0.34024783 0.34024783 0 0 0 67.378906 116.95898 C 67.929081 116.74548 68.475498 116.54438 69.017578 116.35547 C 69.551648 116.16935 70.11082 116.0091 70.695312 115.87109 A 0.34024783 0.34024783 0 0 0 70.699219 115.86914 C 71.279246 115.72413 71.906428 115.61046 72.580078 115.5293 C 73.250336 115.44854 73.998665 115.40625 74.822266 115.40625 C 75.431406 115.40625 76.03715 115.43528 76.638672 115.49219 A 0.34024783 0.34024783 0 0 0 76.642578 115.49414 C 77.248467 115.54261 77.818613 115.62591 78.355469 115.74609 C 78.898902 115.86598 79.401767 116.02541 79.859375 116.22266 A 0.34024783 0.34024783 0 0 0 79.863281 116.22461 C 80.313356 116.41084 80.697688 116.64353 81.023438 116.92383 A 0.34024783 0.34024783 0 0 0 81.027344 116.92773 C 81.348156 117.19632 81.593652 117.50802 81.771484 117.87109 C 81.944333 118.224 82.035156 118.63691 82.035156 119.12305 L 82.035156 120.10938 C 80.556791 120.19746 79.12758 120.30243 77.777344 120.43359 C 76.331497 120.5666 74.984132 120.7404 73.734375 120.95703 C 72.482789 121.1657 71.343194 121.42552 70.318359 121.73633 C 69.296078 122.04062 68.415779 122.4197 67.673828 122.87695 C 66.928853 123.3278 66.337874 123.86958 65.917969 124.50391 A 0.34024783 0.34024783 0 0 0 65.916016 124.50391 C 65.498022 125.13998 65.291016 125.88385 65.291016 126.70117 C 65.291016 127.5189 65.468233 128.26006 65.830078 128.90234 A 0.34024783 0.34024783 0 0 0 65.832031 128.90234 C 66.191057 129.53063 66.70391 130.05978 67.355469 130.48242 A 0.34024783 0.34024783 0 0 0 67.359375 130.48438 C 68.011092 130.8983 68.792692 131.20491 69.699219 131.41016 C 70.613767 131.61529 71.635577 131.71484 72.763672 131.71484 C 73.629326 131.71484 74.510287 131.66183 75.408203 131.55273 C 76.305078 131.44378 77.177451 131.28743 78.025391 131.08594 L 78.025391 131.08789 C 78.880719 130.88663 79.689342 130.64682 80.455078 130.36914 C 81.042445 130.15846 81.539919 129.91761 82.035156 129.67578 L 82.035156 131.04102 A 0.34024783 0.34024783 0 0 0 82.375 131.38086 L 83.912109 131.38086 A 0.34024783 0.34024783 0 0 0 84.251953 131.04102 L 84.251953 119.48242 C 84.251953 118.38335 84.013291 117.42673 83.519531 116.63672 C 83.03502 115.85268 82.366436 115.21294 81.529297 114.72461 C 80.697589 114.23945 79.726433 113.89048 78.621094 113.67773 L 78.619141 113.67773 C 77.520081 113.45806 76.341182 113.34961 75.082031 113.34961 z M 113.20703 113.66016 A 0.34024783 0.34024783 0 0 0 112.86719 114 L 112.86719 131.04102 A 0.34024783 0.34024783 0 0 0 113.20703 131.38086 L 122 131.38086 C 122.94841 131.38086 123.85283 131.32312 124.71289 131.20508 A 0.34024783 0.34024783 0 0 0 124.71484 131.20312 C 125.58682 131.07613 126.3963 130.87728 127.14062 130.60352 L 127.14062 130.60547 C 127.89701 130.33041 128.5812 129.96212 129.19531 129.50391 C 129.82272 129.04206 130.3582 128.47921 130.79297 127.81836 C 131.22913 127.15538 131.55987 126.38426 131.79102 125.51172 L 131.79102 125.50977 C 132.03182 124.6232 132.15039 123.62262 132.15039 122.50781 C 132.15039 120.84395 131.89472 119.43515 131.36328 118.28516 C 130.84686 117.15006 130.11823 116.22716 129.1875 115.53906 L 129.18359 115.53711 C 128.26614 114.84552 127.18297 114.3598 125.94531 114.07812 C 124.71868 113.79896 123.39423 113.66016 121.97461 113.66016 L 113.20703 113.66016 z M 115.09766 115.75391 L 121.97461 115.75391 C 122.77209 115.75391 123.52293 115.79971 124.22656 115.88867 C 124.9236 115.9768 125.56306 116.12821 126.14844 116.3418 A 0.34024783 0.34024783 0 0 0 126.15234 116.3418 C 126.73572 116.54677 127.25558 116.81763 127.71484 117.15234 C 128.16779 117.48247 128.55134 117.8926 128.86914 118.38867 A 0.34024783 0.34024783 0 0 0 128.87109 118.39062 C 129.18668 118.87556 129.43315 119.45549 129.60742 120.13672 C 129.78059 120.81365 129.87109 121.60419 129.87109 122.50781 C 129.87109 123.86384 129.67245 124.97238 129.29297 125.83203 C 128.90844 126.6946 128.37826 127.36962 127.69922 127.87891 C 127.02322 128.38345 126.20422 128.74673 125.23633 128.96094 C 124.25581 129.16958 123.16855 129.27539 121.97461 129.27539 L 115.09766 129.27539 L 115.09766 115.75391 z M 82.035156 122.17383 L 82.035156 127.3418 C 81.794462 127.51384 81.525036 127.6867 81.179688 127.85938 A 0.34024783 0.34024783 0 0 0 81.177734 127.86133 C 80.786971 128.0607 80.348666 128.24781 79.863281 128.42578 C 79.376041 128.60443 78.854804 128.77293 78.300781 128.92773 C 77.746638 129.07434 77.186133 129.20418 76.615234 129.31836 C 76.045901 129.424 75.472511 129.50909 74.894531 129.57422 C 74.328034 129.63069 73.77744 129.66016 73.246094 129.66016 C 72.338732 129.66016 71.524651 129.59043 70.806641 129.45508 C 70.090068 129.31176 69.493215 129.10609 69.009766 128.8457 L 69.005859 128.84375 C 68.527037 128.57706 68.172192 128.25894 67.925781 127.89062 L 67.923828 127.88672 C 67.68877 127.5219 67.570312 127.11198 67.570312 126.625 C 67.570312 126.05061 67.796277 125.55652 68.306641 125.07617 C 68.820236 124.60054 69.672941 124.14912 70.859375 123.76172 C 72.04661 123.37406 73.593063 123.04056 75.490234 122.76953 C 77.295806 122.51271 79.517705 122.32067 82.035156 122.17383 z "
       transform="translate(26.108242)"
       d="m 61.576172,113.37109 c -0.858686,0 -1.692252,0.0984 -2.501953,0.30079 a 0.1435773,0.1435773 0 0 1 -0.002,0 c -0.796806,0.19304 -1.560907,0.46623 -2.291016,0.81835 a 0.1435773,0.1435773 0 0 1 -0.002,0 c -0.730877,0.34444 -1.426702,0.76313 -2.089844,1.25 a 0.1435773,0.1435773 0 0 1 -0.002,0 c -7.33e-4,5.5e-4 -0.0012,0.001 -0.002,0.002 -0.439014,0.32673 -0.83414,0.7091 -1.242188,1.08789 a 0.1435773,0.1435773 0 0 1 -0.242187,-0.10547 V 114 c -1.23e-4,-0.10283 -0.09248,-0.19519 -0.195313,-0.19531 h -1.550781 c -0.102827,1.2e-4 -0.195189,0.0925 -0.195312,0.19531 v 17.04102 c 1.23e-4,0.10282 0.09249,0.19519 0.195312,0.19531 h 1.550781 c 0.102828,-1.2e-4 0.19519,-0.0925 0.195313,-0.19531 V 119.3457 a 0.1435773,0.1435773 0 0 1 0.03516,-0.0918 c 0.451085,-0.53492 0.946668,-1.04639 1.501953,-1.52539 l 0.002,-0.002 a 0.1435773,0.1435773 0 0 1 0.0078,-0.006 c 0.584523,-0.51145 1.216179,-0.95992 1.898437,-1.34179 0.688617,-0.38078 1.430279,-0.67906 2.226563,-0.89844 a 0.1435773,0.1435773 0 0 1 0.0078,-0.002 c 0.798129,-0.22513 1.651095,-0.33985 2.558594,-0.33985 0.660919,0 1.192534,0.0463 1.59375,0.13281 a 0.1435773,0.1435773 0 0 1 0.0059,0.002 c 8.03e-4,1.5e-4 0.0012,-1.6e-4 0.002,0 0.425173,0.0818 0.755368,0.15805 0.982422,0.22851 0.117105,0.0365 0.253674,-0.0648 0.253906,-0.1875 v -1.52539 c -2.05e-4,-0.091 -0.0706,-0.17705 -0.160156,-0.19336 -0.185096,-0.0336 -0.365646,-0.0609 -0.541016,-0.0859 -0.172525,-0.0247 -0.357981,-0.0479 -0.552734,-0.0645 a 0.1435773,0.1435773 0 0 1 -0.0078,0 c -0.19443,-0.0254 -0.40911,-0.0422 -0.640625,-0.0508 l 0.0059,0.002 h -0.01172 a 0.1435773,0.1435773 0 0 1 -0.0098,-0.002 c -0.234363,-0.0165 -0.494028,-0.0234 -0.783203,-0.0234 z m 39.140628,0.0254 c -1.030932,0 -2.011993,0.10757 -2.945316,0.32618 -0.927402,0.21723 -1.803725,0.49624 -2.625,0.83984 -0.808853,0.33363 -1.567097,0.7058 -2.277343,1.11523 a 0.1435773,0.1435773 0 0 1 -0.002,0 c -0.505827,0.28907 -0.948468,0.56238 -1.396485,0.83594 a 0.1435773,0.1435773 0 0 1 -0.21875,-0.12305 V 114 c -1.23e-4,-0.10283 -0.09248,-0.19519 -0.195312,-0.19531 h -1.550782 c -0.102827,1.2e-4 -0.195189,0.0925 -0.195312,0.19531 v 17.04102 c 1.23e-4,0.10282 0.09248,0.19519 0.195312,0.19531 h 1.550782 c 0.102827,-1.2e-4 0.195189,-0.0925 0.195312,-0.19531 v -12.09375 a 0.1435773,0.1435773 0 0 1 0.05273,-0.11133 c 0.450431,-0.37118 0.976422,-0.75589 1.617187,-1.16016 0.684895,-0.43215 1.43747,-0.82387 2.255859,-1.17578 0.816408,-0.35922 1.682065,-0.65392 2.597657,-0.88281 a 0.1435773,0.1435773 0 0 1 0.01563,-0.002 c 0.0065,-0.002 0.01307,-0.002 0.01953,-0.004 0,0 0.002,0 0.002,0 0.907196,-0.2298 1.830251,-0.34961 2.76953,-0.34961 0.824,0 1.56103,0.0698 2.21485,0.20703 0.64597,0.13557 1.1846,0.37382 1.62109,0.70898 0.44075,0.33251 0.781,0.78365 1.01758,1.36719 a 0.1435773,0.1435773 0 0 1 0.004,0.01 c 2.2e-4,5.2e-4 -2.2e-4,0.001 0,0.002 1.9e-4,5.7e-4 -1.9e-4,0.001 0,0.002 0.23983,0.56911 0.36719,1.31395 0.36719,2.23438 v 11.24805 c 1.2e-4,0.10282 0.0925,0.19518 0.19531,0.19531 h 1.54883 c 0.10283,-1.3e-4 0.19519,-0.0925 0.19531,-0.19531 v -11.58399 c 0,-0.91359 -0.14244,-1.7433 -0.43359,-2.48828 a 0.1435773,0.1435773 0 0 1 -0.002,-0.002 c -0.29099,-0.75313 -0.73478,-1.39594 -1.32617,-1.91992 a 0.1435773,0.1435773 0 0 1 -0.002,-0.002 c -0.58509,-0.53347 -1.31891,-0.93886 -2.19922,-1.21875 a 0.1435773,0.1435773 0 0 1 -0.006,-0.002 l -0.004,-0.002 c -0.87523,-0.28779 -1.89482,-0.42579 -3.05664,-0.42579 z m -25.634769,0.0977 c -1.473966,0 -2.868822,0.11397 -4.1875,0.34766 a 0.1435773,0.1435773 0 0 1 -0.002,0 c -1.303352,0.22414 -2.531915,0.49317 -3.6875,0.80078 -0.08275,0.0222 -0.144412,0.10377 -0.144531,0.18945 v 1.81055 c 3.64e-4,0.12697 0.149141,0.22741 0.267578,0.18164 0.551132,-0.21385 1.09948,-0.41425 1.642578,-0.60352 0.536088,-0.18682 1.096682,-0.34787 1.681641,-0.48632 l 0.0098,-0.004 a 0.1435773,0.1435773 0 0 1 0.002,0 c 0.586525,-0.14664 1.21949,-0.26195 1.898438,-0.34375 0.676948,-0.0816 1.43125,-0.125 2.259766,-0.125 0.613701,0 1.224116,0.0306 1.830078,0.0879 a 0.1435773,0.1435773 0 0 1 0.01367,0.004 c 0.607164,0.0491 1.180194,0.13095 1.720703,0.25195 0.551385,0.12164 1.062403,0.28507 1.529297,0.48633 a 0.1435773,0.1435773 0 0 1 0.0078,0.002 c 0,0 0.002,0.002 0.002,0.002 0.45887,0.19078 0.855157,0.42942 1.191407,0.71875 a 0.1435773,0.1435773 0 0 1 0.002,0.004 c 0.335089,0.28054 0.594737,0.60944 0.78125,0.99023 0.183568,0.3748 0.279297,0.81044 0.279297,1.31446 v 0.98633 a 0.1435773,0.1435773 0 0 1 -0.136719,0.14257 c -1.477089,0.088 -2.904084,0.19329 -4.251953,0.32422 -1.442589,0.13271 -2.78587,0.30561 -4.03125,0.52149 a 0.1435773,0.1435773 0 0 1 -0.002,0.002 c -1.246461,0.20782 -2.380624,0.46476 -3.398437,0.77344 C 69.346742,122.17446 68.478944,122.55077 67.75,123 a 0.1435773,0.1435773 0 0 1 -0.002,0 c -0.730163,0.44189 -1.304487,0.96998 -1.710938,1.58398 a 0.1435773,0.1435773 0 0 1 -0.0039,0.002 c -0.400119,0.6105 -0.597656,1.32374 -0.597656,2.11523 0,0.79633 0.171609,1.51066 0.519531,2.12891 2.88e-4,5.1e-4 -2.88e-4,0.001 0,0.002 a 0.1435773,0.1435773 0 0 1 0.002,0 c 0.346598,0.60654 0.841241,1.11603 1.47461,1.52735 7.97e-4,5.1e-4 0.0012,0.001 0.002,0.002 a 0.1435773,0.1435773 0 0 1 0.002,0.002 c 0.634951,0.40327 1.401093,0.70388 2.294922,0.90625 0.901944,0.2023 1.913554,0.30078 3.033203,0.30078 0.859793,0 1.734671,-0.0517 2.626953,-0.16015 0.891616,-0.10831 1.758918,-0.26462 2.601563,-0.46485 a 0.1435773,0.1435773 0 0 1 0.0039,0 c 0.848642,-0.19985 1.651235,-0.43573 2.410156,-0.71093 0.578885,-0.20764 1.07146,-0.44582 1.566406,-0.6875 a 0.1435773,0.1435773 0 0 1 0.207032,0.1289 v 1.36524 c 1.23e-4,0.10282 0.09248,0.19519 0.195312,0.19531 h 1.537109 c 0.102828,-1.2e-4 0.19519,-0.0925 0.195313,-0.19531 v -11.5586 c 0,-1.07829 -0.231811,-2.00606 -0.708984,-2.76953 a 0.1435773,0.1435773 0 0 1 -0.002,0 c -0.471822,-0.76351 -1.120715,-1.38764 -1.939453,-1.86523 -0.815091,-0.47547 -1.770084,-0.81907 -2.861328,-1.0293 a 0.1435773,0.1435773 0 0 1 -0.0039,0 c -1.088617,-0.21758 -2.258858,-0.32422 -3.509766,-0.32422 z m 38.124999,0.31055 c -0.10283,1.2e-4 -0.19519,0.0925 -0.19531,0.19531 v 17.04102 c 1.2e-4,0.10282 0.0925,0.19518 0.19531,0.19531 H 122 c 0.94119,0 1.8377,-0.0571 2.68945,-0.17383 a 0.1435773,0.1435773 0 0 1 0.004,-0.002 c 0.86337,-0.12574 1.66463,-0.32191 2.39844,-0.5918 a 0.1435773,0.1435773 0 0 1 0.004,0 c 0.74218,-0.27033 1.41211,-0.63123 2.01368,-1.08008 0.61397,-0.45196 1.13885,-1.00153 1.56445,-1.64844 0.42607,-0.64765 0.75071,-1.40443 0.97851,-2.26367 a 0.1435773,0.1435773 0 0 1 0,-0.004 c 0.23677,-0.87171 0.35352,-1.86022 0.35352,-2.96485 0,-1.64915 -0.25337,-3.03673 -0.77344,-4.16211 a 0.1435773,0.1435773 0 0 1 0,-0.002 c -0.50707,-1.11456 -1.21978,-2.01476 -2.1289,-2.6875 a 0.1435773,0.1435773 0 0 1 -0.006,-0.004 c -0.89988,-0.67834 -1.96309,-1.15581 -3.1836,-1.43359 -1.21486,-0.27648 -2.52919,-0.41406 -3.93945,-0.41406 z m 1.89063,1.80469 h 6.87695 c 0.80298,0 1.55938,0.0469 2.26953,0.13671 0.70494,0.0891 1.35381,0.24211 1.94922,0.45899 0.001,4.8e-4 0.003,0.001 0.004,0.002 a 0.1435773,0.1435773 0 0 1 0.002,0 c 0.59553,0.20924 1.12847,0.48671 1.59961,0.83008 0.45947,0.33489 0.84842,0.75168 1.17187,1.25 0,0 0.002,0.002 0.002,0.002 a 0.1435773,0.1435773 0 0 1 0.0137,0.0156 c 0.001,0.002 0.003,0.004 0.004,0.006 a 0.1435773,0.1435773 0 0 1 0.002,0.002 c 0.32549,0.50016 0.57643,1.0953 0.7539,1.78906 0.17685,0.6913 0.26953,1.49305 0.26953,2.40625 0,1.37005 -0.20137,2.49838 -0.59179,3.38281 -0.39317,0.88196 -0.93962,1.57922 -1.63867,2.10352 -0.69407,0.51803 -1.53294,0.8895 -2.51758,1.10742 a 0.1435773,0.1435773 0 0 1 -0.002,0 c -0.99198,0.21108 -2.08859,0.31836 -3.29101,0.31836 h -6.87695 a 0.1435773,0.1435773 0 0 1 -0.14454,-0.14453 v -13.52148 a 0.1435773,0.1435773 0 0 1 0.14454,-0.14453 z m -33.070316,6.42187 a 0.1435773,0.1435773 0 0 1 0.152344,0.14258 v 5.16797 a 0.1435773,0.1435773 0 0 1 -0.06055,0.11718 c -0.244916,0.17506 -0.522089,0.35284 -0.875,0.5293 a 0.1435773,0.1435773 0 0 1 -0.002,0 c -0.397085,0.2026 -0.840385,0.39272 -1.330079,0.57227 -0.490916,0.17999 -1.014714,0.35007 -1.572265,0.50586 a 0.1435773,0.1435773 0 0 1 -0.002,0 c -0.557023,0.14737 -1.12161,0.27783 -1.695313,0.39257 a 0.1435773,0.1435773 0 0 1 -0.002,0 c -0.572737,0.10628 -1.149161,0.19231 -1.730469,0.25782 a 0.1435773,0.1435773 0 0 1 -0.002,0 c -0.570727,0.0569 -1.125455,0.0879 -1.662109,0.0879 -0.914717,0 -1.738196,-0.0716 -2.466797,-0.20899 -0.725693,-0.14514 -1.335557,-0.3532 -1.833985,-0.62109 l -0.0039,-0.002 a 0.1435773,0.1435773 0 0 1 -0.0059,-0.004 c -0.49488,-0.27563 -0.86832,-0.60854 -1.128906,-0.99805 a 0.1435773,0.1435773 0 0 1 -0.0039,-0.006 v -0.002 a 0.1435773,0.1435773 0 0 1 -0.002,-0.002 c -0.248108,-0.38663 -0.375,-0.8273 -0.375,-1.33594 0,-0.61204 0.252461,-1.15477 0.783203,-1.6543 0.538492,-0.49868 1.407047,-0.95439 2.605469,-1.3457 1.199108,-0.39154 2.75357,-0.72623 4.65625,-0.99805 1.81195,-0.25772 4.036828,-0.44872 6.556641,-0.5957 z" />
    <path
       id="text3224-3"
       style="font-size:25.4px;line-height:1.25;font-family:sans-serif;fill:#e49644;fill-opacity:1;stroke-width:0.264583"
       sodipodi:type="inkscape:offset"
       inkscape:radius="-0.029255785"
       inkscape:original="M 7.5136719 113.60352 C 7.4507973 113.61362 7.3209636 113.75917 7.3535156 113.70312 C 7.3534226 113.7032 7.3399607 113.7186 7.3398438 113.71875 C 7.3397268 113.7189 7.3352024 113.72269 7.3339844 113.72461 C 7.3325564 113.72686 7.3328336 113.72899 7.3320312 113.73047 C 7.3314649 113.73151 7.3305245 113.7335 7.3300781 113.73438 C 7.3257628 113.74282 7.3230789 113.74695 7.3203125 113.75391 C 7.3147797 113.76782 7.3076757 113.78455 7.3027344 113.79883 C 7.3002637 113.80597 7.2986417 113.81265 7.296875 113.81836 C 7.2959916 113.82121 7.2960143 113.82365 7.2949219 113.82812 C 7.2943757 113.83038 7.2929937 113.84154 7.2929688 113.8418 C 7.2929625 113.84186 7.2929677 113.84956 7.2929688 113.84961 C 7.2929688 113.84961 7.3035828 113.84971 7.3085938 113.84961 L 7.3085938 113.86523 L 7.3085938 130.84961 C 7.3085939 130.84985 7.3163024 130.8942 7.3164062 130.89453 C 7.3164583 130.8947 7.3192286 130.89956 7.3203125 130.90234 C 7.3213964 130.90513 7.3203894 130.90621 7.3242188 130.91406 C 7.3289388 130.9237 7.3353043 130.93266 7.3359375 130.93359 C 7.3387535 130.93775 7.343505 130.94556 7.3515625 130.95508 C 7.3643538 130.97021 7.3735773 130.97905 7.3789062 130.98438 C 7.3842373 130.98971 7.3930805 130.99893 7.4082031 131.01172 C 7.4171667 131.0193 7.4235235 131.02455 7.4277344 131.02734 C 7.4289085 131.02814 7.4396583 131.03438 7.4492188 131.03906 C 7.4572882 131.04303 7.4581214 131.04187 7.4609375 131.04297 C 7.4637536 131.04407 7.4705385 131.04683 7.4707031 131.04688 C 7.4708678 131.04692 7.4833599 131.04979 7.4882812 131.05078 C 7.4907419 131.05127 7.4921876 131.05235 7.4941406 131.05273 C 7.4951171 131.05293 7.4972599 131.05258 7.4980469 131.05273 L 9.0644531 131.05469 C 9.0669105 131.05475 9.0795065 131.05282 9.0800781 131.05273 C 9.1009106 131.04952 9.1071576 131.04695 9.1074219 131.04688 C 9.1075854 131.04682 9.1143628 131.04407 9.1171875 131.04297 C 9.1200122 131.04187 9.1226404 131.04312 9.1308594 131.03906 C 9.1401076 131.0345 9.14874 131.02847 9.1503906 131.02734 C 9.1542172 131.02474 9.1601185 131.02004 9.1699219 131.01172 C 9.1849028 130.99901 9.1938481 130.98975 9.1992188 130.98438 C 9.2045487 130.97904 9.2138062 130.97014 9.2265625 130.95508 C 9.2348489 130.94531 9.2395654 130.9394 9.2421875 130.93555 C 9.2431972 130.93407 9.2493143 130.92531 9.2539062 130.91602 C 9.2579797 130.90775 9.2567198 130.90516 9.2578125 130.90234 C 9.2589052 130.89953 9.2616672 130.89469 9.2617188 130.89453 C 9.2618171 130.89422 9.2689343 130.85521 9.2695312 130.85156 L 9.2695312 130.84961 C 9.2695312 130.84961 9.2695312 130.84766 9.2695312 130.84766 L 9.2695312 130.8457 L 9.2695312 124.65234 C 9.2695312 124.59676 9.2278265 124.55401 9.1777344 124.53125 C 9.1784576 124.53012 9.1789524 124.52852 9.1796875 124.52734 C 9.1820765 124.52351 9.1848893 124.51999 9.1875 124.51562 C 9.1897166 124.51194 9.1913955 124.50923 9.1933594 124.50586 C 9.1960039 124.50253 9.1983555 124.49976 9.2011719 124.49609 C 9.2011719 124.49609 9.2011719 124.49414 9.2011719 124.49414 C 9.2023557 124.4926 9.2039586 124.49171 9.2050781 124.49023 C 9.2097304 124.48552 9.2135774 124.48025 9.21875 124.47461 C 9.21875 124.47461 9.21875 124.47266 9.21875 124.47266 C 9.21875 124.47266 9.2207031 124.4707 9.2207031 124.4707 C 9.2207031 124.4707 9.2226562 124.46875 9.2226562 124.46875 C 9.2242486 124.46738 9.2268209 124.46635 9.2285156 124.46484 C 9.2300204 124.46315 9.231055 124.46058 9.2324219 124.45898 C 9.2324219 124.45898 9.234375 124.45703 9.234375 124.45703 C 9.234375 124.45703 9.2363281 124.45508 9.2363281 124.45508 C 9.2363281 124.45508 9.2382812 124.45508 9.2382812 124.45508 C 9.2439247 124.44991 9.2491906 124.44606 9.2539062 124.44141 C 9.2553802 124.44029 9.2562687 124.43868 9.2578125 124.4375 C 9.2578125 124.4375 9.2597656 124.4375 9.2597656 124.4375 C 9.2634306 124.43468 9.2661989 124.43233 9.2695312 124.42969 C 9.2729001 124.42772 9.2756029 124.42604 9.2792969 124.42383 C 9.2836476 124.42122 9.2871826 124.4184 9.2910156 124.41602 C 9.292195 124.41528 9.2937879 124.41479 9.2949219 124.41406 C 9.3176834 124.46416 9.3604333 124.50586 9.4160156 124.50586 L 16.716797 124.50586 C 18.049892 124.50586 19.19207 124.39174 20.146484 124.16406 A 0.081781727 0.081781727 0 0 0 20.148438 124.16211 A 0.081781727 0.081781727 0 0 0 20.150391 124.16211 C 21.111892 123.92576 21.910262 123.57657 22.533203 123.10938 C 23.154049 122.64373 23.613744 122.06431 23.900391 121.37891 A 0.081781727 0.081781727 0 0 0 23.904297 121.36328 C 24.193663 120.68443 24.337892 119.90882 24.337891 119.04102 C 24.337892 118.17317 24.193603 117.39938 23.904297 116.7207 A 0.081781727 0.081781727 0 0 0 23.900391 116.70508 C 23.613662 116.01947 23.152969 115.43812 22.53125 114.98047 C 21.910285 114.52336 21.118816 114.18491 20.162109 113.95703 A 0.081781727 0.081781727 0 0 0 20.140625 113.96094 C 20.138905 113.96015 20.138471 113.95774 20.136719 113.95703 A 0.081781727 0.081781727 0 0 0 20.125 113.95312 C 19.173476 113.72017 18.040001 113.60353 16.716797 113.60352 L 7.515625 113.60352 L 7.5136719 113.60352 z M 27.730469 113.60352 C 27.667594 113.61362 27.53776 113.75917 27.570312 113.70312 C 27.57022 113.7032 27.556758 113.7186 27.556641 113.71875 C 27.556524 113.7189 27.551999 113.72269 27.550781 113.72461 C 27.549353 113.72686 27.549631 113.72899 27.548828 113.73047 C 27.548262 113.73151 27.547321 113.7335 27.546875 113.73438 C 27.542559 113.74282 27.539876 113.74695 27.537109 113.75391 C 27.531576 113.76782 27.524473 113.78455 27.519531 113.79883 C 27.517061 113.80597 27.515439 113.81265 27.513672 113.81836 C 27.512789 113.82121 27.512811 113.82364 27.511719 113.82812 C 27.511173 113.83038 27.509791 113.84154 27.509766 113.8418 C 27.509759 113.84186 27.509765 113.84956 27.509766 113.84961 C 27.509766 113.84961 27.52038 113.84971 27.525391 113.84961 L 27.525391 113.86523 L 27.525391 118.09961 C 27.525391 118.72138 27.583144 119.33486 27.689453 119.94141 C 27.690708 119.94857 27.691333 119.95492 27.693359 119.96875 C 27.693359 119.96875 27.693359 119.9707 27.693359 119.9707 A 0.081781727 0.081781727 0 0 0 27.691406 119.97461 C 27.695129 119.99403 27.698154 120.00065 27.697266 119.99609 C 27.815484 120.60347 27.998275 121.18667 28.248047 121.74609 C 28.248734 121.74763 28.249545 121.74897 28.25 121.75 C 28.250645 121.75146 28.25012 121.75236 28.251953 121.75586 C 28.252679 121.75736 28.253765 121.7595 28.253906 121.75977 C 28.253949 121.75985 28.255833 121.76363 28.255859 121.76367 C 28.257294 121.76574 28.258676 121.76601 28.259766 121.76758 C 28.259766 121.76758 28.261719 121.76953 28.261719 121.76953 C 28.26279 121.77108 28.263672 121.77344 28.263672 121.77344 C 28.527289 122.33064 28.868026 122.8501 29.289062 123.33008 A 0.081781727 0.081781727 0 0 0 29.291016 123.33398 C 29.720393 123.81489 30.241254 124.22752 30.853516 124.57617 A 0.081781727 0.081781727 0 0 0 30.859375 124.57812 A 0.081781727 0.081781727 0 0 0 30.859375 124.58008 C 31.478912 124.92781 32.192184 125.19877 33.003906 125.40039 C 33.009475 125.40177 33.013081 125.40155 33.017578 125.40234 C 33.018702 125.40254 33.0198 125.40406 33.021484 125.4043 C 33.023168 125.40453 33.033114 125.4043 33.033203 125.4043 L 33.039062 125.4043 A 0.081781727 0.081781727 0 0 0 33.042969 125.40625 C 33.866525 125.59701 34.798617 125.69531 35.841797 125.69531 C 36.771244 125.69531 37.655205 125.58117 38.496094 125.35547 A 0.081781727 0.081781727 0 0 0 38.505859 125.34961 A 0.081781727 0.081781727 0 0 0 38.513672 125.34961 C 39.347838 125.11575 40.123772 124.80957 40.835938 124.43359 A 0.081781727 0.081781727 0 0 0 40.841797 124.42773 A 0.081781727 0.081781727 0 0 0 40.849609 124.42578 C 41.571607 124.03939 42.224826 123.60295 42.806641 123.10547 A 0.081781727 0.081781727 0 0 0 42.806641 123.10352 L 42.808594 123.10156 C 43.137783 122.81908 43.402409 122.51852 43.677734 122.21094 C 43.715196 122.16991 43.712906 122.11117 43.691406 122.06055 C 43.691406 122.06055 43.691406 122.05859 43.691406 122.05859 C 43.691406 122.05859 43.693359 122.05859 43.693359 122.05859 C 43.697453 122.05733 43.700669 122.0561 43.705078 122.05469 C 43.709797 122.05318 43.71443 122.05222 43.71875 122.05078 C 43.726313 122.04989 43.734748 122.04829 43.744141 122.04688 C 43.753534 122.04545 43.762349 122.04427 43.769531 122.04297 C 43.774455 122.04302 43.779767 122.04298 43.785156 122.04297 C 43.790235 122.04296 43.794187 122.04303 43.798828 122.04297 C 43.806215 122.04434 43.815049 122.04548 43.824219 122.04688 C 43.829837 122.04771 43.834802 122.04814 43.839844 122.04883 C 43.84303 122.04926 43.84684 122.05045 43.849609 122.05078 C 43.850777 122.05112 43.852295 122.05043 43.853516 122.05078 C 43.85746 122.05191 43.860953 122.0535 43.865234 122.05469 C 43.868618 122.05563 43.871761 122.05577 43.875 122.05664 C 43.876586 122.05749 43.87915 122.0577 43.880859 122.05859 C 43.886474 122.06151 43.891976 122.06518 43.898438 122.06836 C 43.904055 122.07113 43.909121 122.07383 43.914062 122.07617 C 43.916534 122.07734 43.919722 122.07909 43.921875 122.08008 C 43.926451 122.08318 43.930296 122.08639 43.935547 122.08984 C 43.939387 122.09237 43.943657 122.09338 43.947266 122.0957 C 43.947266 122.0957 43.949219 122.09766 43.949219 122.09766 C 43.954163 122.10257 43.958854 122.10766 43.964844 122.11328 C 43.968753 122.11695 43.972999 122.11978 43.976562 122.12305 C 43.979143 122.12541 43.982137 122.12888 43.984375 122.13086 C 43.987449 122.13476 43.990697 122.13832 43.994141 122.14258 C 43.996747 122.1458 43.999481 122.14739 44.001953 122.15039 C 44.002897 122.15217 44.003025 122.15273 44.003906 122.1543 C 44.006031 122.15685 44.007867 122.15991 44.009766 122.16211 C 44.010982 122.16352 44.012191 122.16635 44.013672 122.16797 C 44.015237 122.1706 44.015921 122.17303 44.017578 122.17578 C 44.020095 122.17996 44.02301 122.18365 44.025391 122.1875 C 43.975298 122.21026 43.933594 122.25301 43.933594 122.30859 L 43.933594 124.62305 C 43.933594 125.3794 43.722221 126.037 43.324219 126.62305 A 0.081781727 0.081781727 0 0 0 43.314453 126.68555 A 0.081781727 0.081781727 0 0 0 43.287109 126.70312 C 42.861303 127.30949 42.278193 127.82366 41.527344 128.24805 A 0.081781727 0.081781727 0 0 0 41.521484 128.25 C 40.773705 128.66811 39.886155 128.99468 38.861328 129.22266 C 37.835044 129.44258 36.734499 129.55273 35.556641 129.55273 C 34.719848 129.55273 33.941676 129.51487 33.222656 129.44141 L 33.216797 129.44141 C 32.506812 129.35955 31.835952 129.24975 31.208984 129.11133 A 0.081781727 0.081781727 0 0 0 31.205078 129.10938 C 30.576696 128.96229 29.985323 128.79665 29.431641 128.60938 C 28.875049 128.42114 28.335401 128.21658 27.8125 127.99609 C 27.811188 127.99554 27.809906 127.99469 27.808594 127.99414 A 0.081781727 0.081781727 0 0 0 27.808594 127.99219 C 27.79573 127.98672 27.791893 127.99049 27.779297 127.98828 C 27.749867 127.98312 27.715652 127.97808 27.710938 127.97852 C 27.689923 127.98048 27.684581 127.98589 27.679688 127.98828 C 27.68706 127.98701 27.645546 127.99095 27.617188 128.00977 C 27.577758 128.03592 27.555358 128.07908 27.550781 128.08789 C 27.545123 128.09878 27.52525 128.13763 27.525391 128.18164 L 27.525391 129.98047 C 27.52552 130.01989 27.54584 130.05851 27.544922 130.05664 C 27.552546 130.07219 27.562152 130.08492 27.568359 130.09375 C 27.572094 130.09906 27.579269 130.1118 27.59375 130.12695 C 27.593882 130.12709 27.600276 130.13612 27.613281 130.14648 C 27.630043 130.15987 27.633536 130.15986 27.630859 130.1582 C 27.638529 130.16295 27.641 130.16431 27.644531 130.16602 C 27.647596 130.1675 27.654247 130.16909 27.65625 130.16992 C 28.656115 130.53963 29.819441 130.82877 31.144531 131.03711 A 0.081781727 0.081781727 0 0 0 31.146484 131.03711 C 32.472798 131.23731 33.926151 131.33984 35.505859 131.33984 C 36.952502 131.33984 38.296021 131.20836 39.542969 130.95312 A 0.081781727 0.081781727 0 0 0 39.548828 130.95117 A 0.081781727 0.081781727 0 0 0 39.550781 130.95117 L 39.560547 130.95117 A 0.081781727 0.081781727 0 0 0 39.566406 130.95117 C 39.574312 130.95065 39.582135 130.9491 39.589844 130.94727 L 39.59375 130.94531 C 40.853017 130.6771 41.948742 130.27088 42.876953 129.72266 C 43.81862 129.17122 44.562365 128.47548 45.101562 127.63672 A 0.081781727 0.081781727 0 0 0 45.101562 127.63477 C 45.64481 126.78111 45.917968 125.77071 45.917969 124.62305 L 45.917969 113.80859 C 45.917968 113.80835 45.91026 113.764 45.910156 113.76367 C 45.910104 113.76351 45.907338 113.75865 45.90625 113.75586 C 45.905162 113.75306 45.90625 113.75211 45.902344 113.74414 C 45.897634 113.73452 45.891281 113.72558 45.890625 113.72461 C 45.88784 113.7205 45.883074 113.71268 45.875 113.70312 C 45.862172 113.68794 45.852931 113.67911 45.847656 113.67383 C 45.842353 113.66853 45.833466 113.65927 45.818359 113.64648 C 45.809384 113.6389 45.802996 113.63363 45.798828 113.63086 C 45.797729 113.63011 45.786941 113.62384 45.777344 113.61914 C 45.769245 113.61516 45.768415 113.61632 45.765625 113.61523 C 45.762835 113.61415 45.757977 113.61138 45.757812 113.61133 A 0.081781727 0.081781727 0 0 0 45.755859 113.61133 C 45.755694 113.61128 45.743202 113.60841 45.738281 113.60742 C 45.735821 113.60693 45.734375 113.60585 45.732422 113.60547 C 45.731445 113.60528 45.729303 113.60562 45.728516 113.60547 L 44.140625 113.60352 L 44.138672 113.60352 C 44.138672 113.60352 44.123834 113.60532 44.123047 113.60547 C 44.12226 113.60562 44.120117 113.60528 44.119141 113.60547 C 44.117188 113.60585 44.115742 113.60693 44.113281 113.60742 C 44.10836 113.60841 44.095868 113.61128 44.095703 113.61133 A 0.081781727 0.081781727 0 0 0 44.09375 113.61133 C 44.093585 113.61138 44.088728 113.61415 44.085938 113.61523 C 44.083146 113.61632 44.082318 113.61516 44.074219 113.61914 C 44.064609 113.62384 44.053812 113.63013 44.052734 113.63086 C 44.048556 113.63364 44.04217 113.6389 44.033203 113.64648 C 44.018083 113.65928 44.009201 113.66854 44.003906 113.67383 C 43.998629 113.67911 43.989388 113.68795 43.976562 113.70312 C 43.968505 113.71265 43.963725 113.7205 43.960938 113.72461 C 43.960282 113.72558 43.953929 113.73452 43.949219 113.74414 C 43.945316 113.75211 43.9464 113.75307 43.945312 113.75586 C 43.944226 113.75865 43.941458 113.76351 43.941406 113.76367 C 43.941302 113.764 43.933594 113.80835 43.933594 113.80859 L 43.933594 119.16992 A 0.081781727 0.081781727 0 0 0 44 119.23633 A 0.081781727 0.081781727 0 0 0 43.90625 119.25391 C 43.496404 119.8516 43.040739 120.42609 42.525391 120.97266 C 41.995397 121.53477 41.40829 122.03321 40.757812 122.46875 C 40.754645 122.47087 40.751217 122.47249 40.748047 122.47461 A 0.081781727 0.081781727 0 0 0 40.736328 122.47852 C 40.083304 122.9056 39.361055 123.25071 38.568359 123.50977 C 37.780934 123.75862 36.913623 123.88477 35.964844 123.88477 C 34.733165 123.88477 33.704982 123.73628 32.882812 123.44922 A 0.081781727 0.081781727 0 0 0 32.878906 123.44922 C 32.061816 123.15218 31.412785 122.73912 30.917969 122.21289 C 30.420926 121.68428 30.061354 121.04877 29.837891 120.30078 C 29.837891 120.30078 29.837891 120.29883 29.837891 120.29883 A 0.081781727 0.081781727 0 0 0 29.837891 120.29688 C 29.620707 119.54076 29.509765 118.69854 29.509766 117.76367 L 29.509766 113.80859 C 29.509766 113.80835 29.502057 113.764 29.501953 113.76367 C 29.501901 113.76351 29.499134 113.75865 29.498047 113.75586 C 29.496959 113.75306 29.498047 113.75211 29.494141 113.74414 C 29.489439 113.73454 29.48311 113.72563 29.482422 113.72461 C 29.479635 113.7205 29.474871 113.71268 29.466797 113.70312 C 29.453972 113.68796 29.44473 113.67911 29.439453 113.67383 C 29.434154 113.66853 29.425262 113.65927 29.410156 113.64648 C 29.40118 113.6389 29.394793 113.63363 29.390625 113.63086 L 29.388672 113.63086 C 29.386642 113.62948 29.378067 113.62351 29.369141 113.61914 C 29.361029 113.61515 29.360213 113.61632 29.357422 113.61523 C 29.354631 113.61415 29.349774 113.61138 29.349609 113.61133 A 0.081781727 0.081781727 0 0 0 29.347656 113.61133 C 29.347491 113.61128 29.334999 113.60841 29.330078 113.60742 C 29.327618 113.60693 29.326171 113.60585 29.324219 113.60547 C 29.323243 113.60528 29.3211 113.60562 29.320312 113.60547 L 27.732422 113.60352 L 27.730469 113.60352 z M 9.2949219 115.37305 C 9.3176826 115.42314 9.3604352 115.46484 9.4160156 115.46484 L 15.724609 115.46484 C 16.893718 115.46484 17.90268 115.50974 18.744141 115.59961 C 19.569511 115.6869 20.232678 115.86286 20.753906 116.11328 A 0.081781727 0.081781727 0 0 0 20.787109 116.11523 C 20.79025 116.11741 20.791582 116.12116 20.794922 116.12305 A 0.081781727 0.081781727 0 0 0 20.800781 116.12695 C 21.320676 116.37252 21.693452 116.71893 21.935547 117.16602 A 0.081781727 0.081781727 0 0 0 21.972656 117.19336 A 0.081781727 0.081781727 0 0 0 21.972656 117.26562 C 22.199556 117.71576 22.328125 118.29616 22.328125 119.04102 C 22.328125 119.7131 22.22626 120.25531 22.029297 120.67383 A 0.081781727 0.081781727 0 0 0 22.03125 120.67773 C 22.027565 120.68375 22.026196 120.69078 22.023438 120.69727 C 22.020679 120.70376 22.017402 120.70997 22.015625 120.7168 A 0.081781727 0.081781727 0 0 0 21.980469 120.74609 C 21.788928 121.14206 21.548856 121.46651 21.242188 121.70898 A 0.081781727 0.081781727 0 0 0 21.240234 121.71094 A 0.081781727 0.081781727 0 0 0 21.238281 121.71289 C 20.913086 121.97566 20.532744 122.17338 20.09375 122.30664 A 0.081781727 0.081781727 0 0 0 20.089844 122.30664 C 19.647595 122.43505 19.17969 122.52555 18.6875 122.58203 A 0.081781727 0.081781727 0 0 0 18.685547 122.58203 C 18.192559 122.63027 17.691555 122.65606 17.181641 122.65625 A 0.081781727 0.081781727 0 0 0 17.179688 122.65625 C 16.665917 122.64795 16.180405 122.64453 15.724609 122.64453 L 9.4160156 122.64453 C 9.3604333 122.64453 9.3176834 122.68623 9.2949219 122.73633 C 9.2935576 122.73572 9.2923544 122.73495 9.2910156 122.73438 C 9.2871826 122.73198 9.2836476 122.72917 9.2792969 122.72656 C 9.2756029 122.72435 9.2729001 122.72267 9.2695312 122.7207 C 9.2661989 122.71806 9.2634306 122.71571 9.2597656 122.71289 C 9.2597656 122.71289 9.2578125 122.71289 9.2578125 122.71289 C 9.2562687 122.71171 9.2553802 122.7101 9.2539062 122.70898 C 9.2491907 122.70433 9.2439247 122.70048 9.2382812 122.69531 C 9.2382812 122.69531 9.2363281 122.69531 9.2363281 122.69531 C 9.2363281 122.69531 9.234375 122.69336 9.234375 122.69336 C 9.234375 122.69336 9.2324219 122.69141 9.2324219 122.69141 C 9.231055 122.68981 9.2300204 122.68724 9.2285156 122.68555 C 9.2268209 122.68404 9.2242486 122.68301 9.2226562 122.68164 C 9.2226562 122.68164 9.2207031 122.67969 9.2207031 122.67969 C 9.2207031 122.67969 9.21875 122.67773 9.21875 122.67773 C 9.21875 122.67773 9.21875 122.67578 9.21875 122.67578 C 9.2135774 122.67014 9.2097304 122.66487 9.2050781 122.66016 C 9.2039586 122.65868 9.2023557 122.65779 9.2011719 122.65625 C 9.2011719 122.65625 9.2011719 122.6543 9.2011719 122.6543 C 9.1983555 122.65063 9.1960039 122.64786 9.1933594 122.64453 C 9.1913955 122.64116 9.1897166 122.63846 9.1875 122.63477 C 9.1848893 122.63041 9.1820765 122.62688 9.1796875 122.62305 C 9.1789524 122.62187 9.1784576 122.62027 9.1777344 122.61914 C 9.2278265 122.59638 9.2695313 122.55363 9.2695312 122.49805 L 9.2695312 115.61133 C 9.2695312 115.55575 9.2278265 115.513 9.1777344 115.49023 C 9.1784573 115.4891 9.1789527 115.48751 9.1796875 115.48633 C 9.1820758 115.4825 9.1848897 115.47896 9.1875 115.47461 C 9.1897163 115.47092 9.1913962 115.46821 9.1933594 115.46484 C 9.1960041 115.46151 9.198355 115.45874 9.2011719 115.45508 C 9.2011719 115.45508 9.2011719 115.45312 9.2011719 115.45312 C 9.2023558 115.45159 9.2039583 115.45069 9.2050781 115.44922 C 9.2097387 115.4445 9.2135764 115.43924 9.21875 115.43359 C 9.21875 115.43359 9.21875 115.43164 9.21875 115.43164 C 9.21875 115.43164 9.2207031 115.42969 9.2207031 115.42969 C 9.2207031 115.42969 9.2226562 115.42773 9.2226562 115.42773 C 9.2242532 115.42637 9.2268191 115.42533 9.2285156 115.42383 C 9.2300208 115.42213 9.2310542 115.41956 9.2324219 115.41797 C 9.2324219 115.41797 9.234375 115.41602 9.234375 115.41602 C 9.234375 115.41602 9.2363281 115.41406 9.2363281 115.41406 C 9.2363281 115.41406 9.2382812 115.41406 9.2382812 115.41406 C 9.243926 115.40889 9.2491904 115.40504 9.2539062 115.40039 C 9.2553802 115.39927 9.2562687 115.39767 9.2578125 115.39648 C 9.2578125 115.39648 9.2597656 115.39648 9.2597656 115.39648 C 9.2634305 115.39367 9.2661983 115.39132 9.2695312 115.38867 C 9.2729013 115.38671 9.2756018 115.38503 9.2792969 115.38281 C 9.2836488 115.3802 9.2871794 115.37739 9.2910156 115.375 C 9.292196 115.37426 9.2937862 115.37377 9.2949219 115.37305 z M 28.423828 121.58594 L 28.490234 121.69141 L 28.423828 121.73438 L 28.394531 121.70508 L 28.373047 121.78125 L 28.310547 121.73438 C 28.316202 121.72978 28.326172 121.72266 28.326172 121.72266 C 28.326172 121.72266 28.344889 121.71684 28.363281 121.71094 A 0.081781727 0.081781727 0 0 0 28.365234 121.71289 L 28.367188 121.71484 L 28.369141 121.70898 C 28.379865 121.70554 28.384429 121.70316 28.390625 121.70117 L 28.386719 121.69727 C 28.390221 121.69614 28.397328 121.69567 28.398438 121.69531 L 28.396484 121.69922 C 28.397828 121.69879 28.404297 121.69727 28.404297 121.69727 L 28.404297 121.69531 L 28.404297 121.69336 C 28.404297 121.69336 28.402344 121.69336 28.402344 121.69336 L 28.402344 121.69141 C 28.402344 121.69141 28.402344 121.68945 28.402344 121.68945 C 28.402344 121.68945 28.400391 121.6875 28.400391 121.6875 C 28.399744 121.68591 28.398839 121.68449 28.398438 121.68359 L 28.380859 121.69141 L 28.378906 121.68945 L 28.423828 121.58594 z M 18.701172 122.70312 L 18.777344 122.7793 L 18.636719 122.81055 L 18.701172 122.70312 z M 32.767578 123.55859 C 32.854054 123.57262 32.804863 123.51662 32.871094 123.58008 L 32.832031 123.69922 L 32.748047 123.59961 L 32.767578 123.55859 z M 40.800781 124.23242 L 40.783203 124.31445 L 40.710938 124.25781 L 40.800781 124.23242 z M 33.070312 125.22656 L 33.101562 125.24023 L 33.070312 125.25977 L 33.070312 125.22656 z M 33.056641 125.24609 L 33.066406 125.26367 L 33.046875 125.27539 C 33.051 125.2611 33.05628 125.24743 33.056641 125.24609 z M 33.070312 125.26953 L 33.09375 125.30664 L 33.037109 125.30664 C 33.039119 125.29968 33.041753 125.29613 33.044922 125.28516 C 33.05239 125.2866 33.060538 125.2887 33.064453 125.28906 C 33.070325 125.2896 33.062703 125.2875 33.070312 125.28906 L 33.070312 125.26953 z "
       transform="translate(26.638127,-9.8e-4)"
       d="m 7.515625,113.63281 c -0.007,0.002 -0.022649,0.0107 -0.041016,0.0234 -0.019033,0.0132 -0.040687,0.0298 -0.058594,0.0449 -0.017907,0.0151 -0.030842,0.0268 -0.042969,0.0352 -0.00152,0.001 -0.00411,0.003 -0.00586,0.004 -0.00175,0.001 -0.00523,0.002 -0.00586,0.002 -9.5e-5,3e-5 -0.00128,-2e-4 -0.00195,0 0,0 -0.00195,0 -0.00195,0 -1.893e-4,4.5e-4 4.01e-5,0.002 0,0.002 4.242e-4,-7.8e-4 -9.559e-4,0.002 -0.00195,0.004 -0.00479,0.009 -0.00598,0.013 -0.00781,0.0176 -0.00573,0.0144 -0.013161,0.0302 -0.017578,0.043 -0.00192,0.006 -0.00368,0.0106 -0.00586,0.0176 a 0.02925871,0.02925871 0 0 1 0.013672,0.0234 v 0.0156 16.98438 c 1e-7,2e-4 0.0024,0.0229 0.00391,0.0312 2.931e-4,5.4e-4 0.00144,0.003 0.00195,0.004 3.66e-5,1.9e-4 -5.3e-6,0.002 0,0.002 8.759e-4,0.002 0.0027,0.003 0.00391,0.006 0.00422,0.0109 -5.266e-4,0.003 0.00195,0.008 0.0033,0.007 0.00913,0.0166 0.00977,0.0176 0.00378,0.006 0.00705,0.01 0.013672,0.0176 0.011942,0.0141 0.021516,0.0215 0.027344,0.0273 0.00582,0.006 0.013221,0.0154 0.027344,0.0273 0.00884,0.007 0.0142,0.0127 0.015625,0.0137 0.00117,8e-4 0.011416,0.006 0.019531,0.01 0,0 0.00195,0 0.00195,0 0.00151,2.7e-4 0.00516,0.002 0.00586,0.002 0.00343,0.001 0.00765,0.004 0.00781,0.004 v -0.002 c 1.647e-4,4e-5 0.012037,0.003 0.015625,0.004 4.192e-4,9e-5 -4e-4,0.002 0,0.002 0,0 0.00195,0 0.00195,0 0.00142,4.1e-4 0.00298,-3.6e-4 0.00391,0 l 1.5644531,0.002 c 0.00114,-1.3e-4 0.00228,2.2e-4 0.00391,0 0.00325,-4.5e-4 0.00753,-0.002 0.00781,-0.002 0.017808,-0.003 0.020523,-0.004 0.021484,-0.004 1.635e-4,-6e-5 0.00632,-0.003 0.00977,-0.004 7.062e-4,-2.7e-4 0.00612,-0.002 0.00781,-0.002 0,0 0.00195,0 0.00195,0 0.00655,-0.003 0.015129,-0.008 0.017578,-0.01 0.00184,-0.001 0.00609,-0.006 0.015625,-0.0137 0.014017,-0.0119 0.021567,-0.0216 0.027344,-0.0273 0.00581,-0.006 0.015425,-0.0133 0.027344,-0.0273 0.00806,-0.01 0.012397,-0.0138 0.013672,-0.0156 0.00172,-0.003 0.00651,-0.011 0.00977,-0.0176 0,0 0,-0.002 0,-0.002 2.174e-4,-0.002 0.00168,-0.007 0.00195,-0.008 7.538e-4,-0.002 0.00134,-0.003 0.00195,-0.004 -4.42e-5,2.3e-4 0.00195,-0.004 0.00195,-0.004 1.17e-4,-6.4e-4 -1.372e-4,-0.001 0,-0.002 6.862e-4,-0.004 0.00102,-0.009 0.00195,-0.0137 0.00153,-0.008 0.00335,-0.0145 0.00391,-0.0176 v -0.002 c 3.08e-5,-1.7e-4 10e-7,-0.002 0,-0.002 v -0.002 -6.19336 c 0,-0.0409 -0.03112,-0.0742 -0.074219,-0.0937 a 0.02925871,0.02925871 0 0 1 -0.013672,-0.041 c 0,0 0,-0.002 0,-0.002 7.778e-4,-0.002 0.0017,-0.003 0.00195,-0.004 0.00359,-0.006 0.0064,-0.009 0.00781,-0.0117 0.00231,-0.004 0.00411,-0.007 0.00586,-0.01 a 0.02925871,0.02925871 0 0 1 0.00195,-0.002 c 0.00233,-0.003 0.00405,-0.006 0.00586,-0.008 a 0.02925871,0.02925871 0 0 1 0.00195,-0.004 c 3.946e-4,-5.1e-4 0.00227,-0.002 0.00391,-0.004 0,0 0.00195,-0.002 0.00195,-0.002 a 0.02925871,0.02925871 0 0 1 0,-0.002 c 0.00227,-0.002 0.00682,-0.006 0.011719,-0.0117 a 0.02925871,0.02925871 0 0 1 0.00195,-0.006 l 0.00195,-0.002 0.00195,-0.002 a 0.02925871,0.02925871 0 0 1 0.00195,0 c 2.45e-4,-2.2e-4 0.00268,-0.001 0.00391,-0.002 1.713e-4,-2.7e-4 -2.975e-4,-0.002 0,-0.002 h 0.00195 c 0,0 0.00195,-0.002 0.00195,-0.002 2.477e-4,-3.3e-4 -7.89e-5,-0.002 0,-0.002 a 0.02925871,0.02925871 0 0 1 0,-0.002 l 0.00195,-0.002 0.00195,-0.002 a 0.02925871,0.02925871 0 0 1 0.00586,-0.002 c 0.00553,-0.005 0.0094,-0.009 0.011719,-0.0117 a 0.02925871,0.02925871 0 0 1 0.00391,-0.002 c 0.0017,-0.002 0.00339,-0.004 0.00391,-0.004 a 0.02925871,0.02925871 0 0 1 0.00391,-0.002 c 0.0023,-0.002 0.00487,-0.004 0.00781,-0.006 a 0.02925871,0.02925871 0 0 1 0.00195,-0.002 c 0.003,-0.002 0.00586,-0.004 0.00977,-0.006 0.00237,-0.001 0.00594,-0.004 0.011719,-0.008 4.128e-4,-2.5e-4 0.00236,-0.001 0.00391,-0.002 a 0.02925871,0.02925871 0 0 1 0.042969,0.0137 c 0.019584,0.0431 0.0528,0.0742 0.09375,0.0742 h 7.3007814 c 1.331425,0 2.472392,-0.11482 3.423828,-0.34179 l -0.01367,0.008 a 0.02925871,0.02925871 0 0 1 0.02148,-0.01 h -0.0059 c 0.95866,-0.23565 1.754107,-0.58268 2.373047,-1.04687 0.616575,-0.46245 1.072759,-1.03697 1.357422,-1.7168 v -0.002 c 8.39e-4,-0.003 0.0015,-0.005 0.002,-0.008 a 0.02925871,0.02925871 0 0 1 0.002,-0.008 c 0.287589,-0.67468 0.431642,-1.44599 0.431641,-2.31054 1e-6,-0.86461 -0.144104,-1.63407 -0.431641,-2.3086 a 0.02925871,0.02925871 0 0 1 -0.002,-0.008 c -4.07e-4,-0.003 -0.0011,-0.005 -0.002,-0.008 v -0.002 c -0.284745,-0.68003 -0.742123,-1.25657 -1.359375,-1.71093 -0.61655,-0.45386 -1.402429,-0.79038 -2.355469,-1.01758 h -0.002 c -0.002,4e-4 -0.0039,0.001 -0.0059,0.002 a 0.02925871,0.02925871 0 0 1 -0.02148,0 c -1.65e-4,-7e-5 -0.002,-0.002 -0.0039,-0.004 -0.0011,-4.9e-4 -0.0027,3.9e-4 -0.0039,0 -0.0013,-4.5e-4 -0.0025,-0.002 -0.0039,-0.002 -0.948503,-0.23221 -2.078906,-0.3496 -3.400391,-0.34961 H 7.5175781 Z m 20.216797,0 c -0.007,0.002 -0.02265,0.0107 -0.04102,0.0234 -0.01903,0.0132 -0.04069,0.0298 -0.05859,0.0449 -0.01791,0.0151 -0.03084,0.0268 -0.04297,0.0352 -0.0015,0.001 -0.0041,0.003 -0.0059,0.004 -0.0018,0.001 -0.0052,0.002 -0.0059,0.002 -9.5e-5,3e-5 -0.0013,-2e-4 -0.002,0 0,0 -0.002,0 -0.002,0 -1.9e-4,4.5e-4 4e-5,0.002 0,0.002 4.16e-4,-7.6e-4 -9.69e-4,0.002 -0.002,0.004 -0.0048,0.009 -0.006,0.013 -0.0078,0.0176 -0.0057,0.0144 -0.01316,0.0302 -0.01758,0.043 -0.0019,0.006 -0.0037,0.0106 -0.0059,0.0176 a 0.02925871,0.02925871 0 0 1 0.01367,0.0234 v 0.0156 4.23438 c 0,0.61996 0.05802,1.23092 0.164062,1.83594 0.0015,0.008 0.0019,0.0159 0.0039,0.0293 a 0.02925871,0.02925871 0 0 1 0,0.004 v 0.002 a 0.02925871,0.02925871 0 0 1 0,0.004 c 9.95e-4,0.004 0.0016,0.0106 0.002,0.0117 0,0 -0.002,-0.002 -0.002,-0.002 7.8e-5,1.6e-4 -0.002,-0.004 -0.002,-0.004 0,0 -0.0018,-1e-4 -0.002,0 v 0.002 c -0.003,0.002 -0.01317,0.0103 -0.01758,0.0137 l 0.02539,-0.006 c 0.117809,0.60528 0.299976,1.18678 0.548829,1.74415 -2.31e-4,-5.2e-4 0.0015,0.003 0.002,0.004 7.6e-5,1.7e-4 -4.97e-4,0.002 0,0.004 6.61e-4,5.5e-4 0.0018,0.002 0.002,0.002 2.28e-4,4.5e-4 -5.7e-5,0.002 0,0.002 0,0 0.002,0.002 0.002,0.002 8.96e-4,0.001 0.0018,0.002 0.002,0.002 a 0.02925871,0.02925871 0 0 1 0.002,0.002 c 5.36e-4,7.8e-4 0.0032,0.006 0.0039,0.008 7.49e-4,0.002 0.002,0.004 0.002,0.004 0.262352,0.55415 0.600631,1.06933 1.019531,1.54688 a 0.02925871,0.02925871 0 0 1 0.0059,0.008 c 0,0 0,0.002 0,0.002 0.426208,0.47615 0.943128,0.88445 1.550782,1.23047 a 0.02925871,0.02925871 0 0 1 0.01367,0.008 0.02925871,0.02925871 0 0 1 0.002,0.002 c 0.614574,0.34359 1.323506,0.61049 2.128907,0.81054 0.002,5e-4 0.0037,5.5e-4 0.01172,0.002 1.4e-5,0 -1.32e-4,0.002 0,0.002 8.35e-4,1e-5 0.0027,1e-5 0.0039,0 8.64e-4,2.6e-4 0.0019,-2e-5 0.002,0 0.0016,-3e-5 0.0039,0 0.0039,0 h 0.0059 a 0.02925871,0.02925871 0 0 1 0.0098,0.002 c 0.0019,4.5e-4 0.0039,0.002 0.0059,0.002 0.819556,0.18928 1.748224,0.28711 2.787109,0.28711 0.924871,0 1.804079,-0.11198 2.640625,-0.33594 5.02e-4,-2.6e-4 0.0015,2.7e-4 0.002,0 0.0016,-9.1e-4 0.0024,-0.003 0.0039,-0.004 a 0.02925871,0.02925871 0 0 1 0.01953,-0.006 l -0.002,0.002 c 0.002,-5.7e-4 0.0039,-0.001 0.0059,-0.002 0.827642,-0.23245 1.597866,-0.53563 2.304687,-0.9082 l 0.002,-0.002 c 6.28e-4,-6.3e-4 0.0014,-0.001 0.002,-0.002 a 0.02925871,0.02925871 0 0 1 0.01563,-0.01 c 0.0011,-2.3e-4 0.0028,2.9e-4 0.0039,0 5.55e-4,-1.5e-4 0.0014,1.6e-4 0.002,0 0.716522,-0.38389 1.363886,-0.81732 1.941406,-1.31055 a 0.02925871,0.02925871 0 0 1 0.002,-0.006 l 0.002,-0.002 a 0.02925871,0.02925871 0 0 1 0.002,0 c 0.327287,-0.28085 0.591759,-0.58098 0.867188,-0.88867 0.02769,-0.0303 0.02642,-0.0753 0.0078,-0.11914 a 0.02925871,0.02925871 0 0 1 -0.002,-0.0117 v -0.002 a 0.02925871,0.02925871 0 0 1 0.0293,-0.0293 h 0.002 c 0.001,-3.5e-4 7.03e-4,-0.002 0.002,-0.002 0.0066,-0.002 0.0116,-0.003 0.01367,-0.004 a 0.02925871,0.02925871 0 0 1 0.0059,-0.002 c 0.006,-7.1e-4 0.01533,-0.002 0.02539,-0.004 0.0097,-0.001 0.01733,-0.003 0.02344,-0.004 a 0.02925871,0.02925871 0 0 1 0.0059,0 c 0.0046,5e-5 0.01013,10e-6 0.01563,0 0.0054,-1e-5 0.0095,6e-5 0.01367,0 a 0.02925871,0.02925871 0 0 1 0.0059,0 c 0.0061,0.001 0.01384,0.002 0.02344,0.004 0.0046,6.8e-4 0.0096,0.001 0.01563,0.002 0.0072,9.7e-4 0.01207,0.002 0.0098,0.002 5.98e-4,7e-5 0.0011,-1e-4 0.002,0 a 0.02925871,0.02925871 0 0 1 0.002,0.002 c 0.0018,2.2e-4 0.0038,-4e-5 0.0039,0 0.0065,0.002 0.01,0.003 0.01172,0.004 -3.95e-4,-1.1e-4 0.0027,6e-5 0.0098,0.002 a 0.02925871,0.02925871 0 0 1 0.002,0 c 5.35e-4,1.3e-4 0.0024,-4.7e-4 0.0039,0 0.0015,4.7e-4 0.0054,0.004 0.0059,0.004 0.0076,0.004 0.01322,0.008 0.01758,0.01 0.0061,0.003 0.0096,0.004 0.01367,0.006 0.0039,0.002 0.0076,0.004 0.0078,0.004 a 0.02925871,0.02925871 0 0 1 0.0039,0.004 c 0.006,0.004 0.0099,0.005 0.01367,0.008 -0.0015,-9.8e-4 0.0025,-4e-5 0.01172,0.006 a 0.02925871,0.02925871 0 0 1 0.0059,0.004 l 0.002,0.002 c 0.0056,0.006 0.0086,0.0108 0.01367,0.0156 0.0017,0.002 0.0058,0.004 0.01172,0.01 0.0048,0.004 0.0086,0.008 0.0078,0.008 a 0.02925871,0.02925871 0 0 1 0.0039,0.004 c 0.0022,0.003 0.0057,0.007 0.0098,0.0117 -7.26e-4,-9e-4 0.0018,-0.001 0.0078,0.006 a 0.02925871,0.02925871 0 0 1 0.002,0.006 c 0.0016,0.003 0.0019,0.004 0.002,0.004 2.66e-4,4.2e-4 0.0022,0.002 0.002,0.002 3.04e-4,3.5e-4 0.0032,0.005 0.0039,0.006 0,0 0.002,0.002 0.002,0.002 a 0.02925871,0.02925871 0 0 1 0.002,0.002 c 0.0037,0.006 0.0043,0.009 0.0039,0.008 0.0013,0.002 0.0042,0.006 0.0078,0.0117 a 0.02925871,0.02925871 0 0 1 -0.01367,0.043 c -0.0431,0.0196 -0.07422,0.0528 -0.07422,0.0937 v 2.31446 c 0,0.7618 -0.214223,1.42514 -0.615235,2.01562 h 0.002 c -0.0073,0.0118 -0.0092,0.0256 -0.0059,0.0391 a 0.02925871,0.02925871 0 0 1 -0.01953,0.0352 c -0.0049,0.002 -0.0096,0.005 -0.01367,0.008 -5.22e-4,7.5e-4 -0.0014,0.001 -0.002,0.002 -6.76e-4,5.9e-4 -0.0013,0.001 -0.002,0.002 -0.42828,0.60834 -1.01345,1.12369 -1.765625,1.54883 a 0.02925871,0.02925871 0 0 1 -0.0059,0.002 c -0.0013,3.7e-4 -0.0027,0.001 -0.0039,0.002 -0.749939,0.41876 -1.638653,0.7465 -2.664062,0.97461 -1.028517,0.2204 -2.130865,0.33008 -3.310547,0.33008 -0.836207,0 -1.614909,-0.038 -2.333985,-0.11133 h -0.0059 a 0.02925871,0.02925871 0 0 1 -0.0039,0 c -0.710859,-0.082 -1.381688,-0.19141 -2.009766,-0.33008 a 0.02925871,0.02925871 0 0 1 -0.0039,-0.002 c -0.002,-4.8e-4 -0.0038,-0.001 -0.0059,-0.002 -0.626873,-0.14691 -1.218579,-0.31299 -1.771484,-0.5 -0.557249,-0.18846 -1.097522,-0.39251 -1.621094,-0.61328 -0.005,-0.002 -0.0062,-0.003 -0.0039,-0.002 a 0.02925871,0.02925871 0 0 1 0,-0.002 c -0.0032,-0.001 -0.0017,-0.002 -0.0039,-0.002 -0.0022,-1e-5 -0.0099,0.002 -0.01953,0 -0.01441,-0.003 -0.02857,-0.006 -0.04102,-0.008 -0.0062,-9e-4 -0.01178,-0.002 -0.01563,-0.002 -0.0013,-1.4e-4 -0.0031,8e-5 -0.0039,0 0,0 -0.002,0 -0.002,0 -0.0057,7.4e-4 -0.0084,0.001 -0.0098,0.002 -0.0016,6.5e-4 -0.0013,7.3e-4 -0.0078,0.004 l -0.01953,-0.0547 c 1.37e-4,-2e-5 -0.004,0.002 -0.0039,0.002 0,0 -0.0039,0.002 -0.0039,0.002 0,0 0.01367,0.0254 0.01367,0.0254 0,0 -0.0098,0.0273 -0.0098,0.0273 0,0 0.0078,0.002 0.0078,0.002 -0.0025,4.4e-4 -0.0058,9.8e-4 -0.0098,0.002 -0.01105,0.003 -0.02567,0.007 -0.03516,0.0137 -0.03133,0.0208 -0.05204,0.0595 -0.05664,0.0684 -0.0055,0.0105 -0.0216,0.0449 -0.02148,0.0801 v 1.79883 c 4.8e-5,0.0147 0.0035,0.0325 0.0078,0.0449 0.0022,0.006 0.0044,0.0104 0.0059,0.0137 7.43e-4,0.002 0.0016,0.003 0.002,0.004 0.0061,0.0125 0.01472,0.0236 0.02148,0.0332 0.0063,0.009 0.01128,0.0185 0.02344,0.0312 1.32e-4,1.4e-4 0.0054,0.008 0.01563,0.0156 0.0064,0.005 0.01054,0.007 0.01172,0.008 1.84e-4,8e-5 -0.004,-3e-5 -0.0039,0 5.8e-5,2e-5 -0.0039,-1e-5 -0.0039,0 0,0 2.9e-4,0.004 0,0.006 a 0.02925871,0.02925871 0 0 1 0.0098,-0.004 0.02925871,0.02925871 0 0 1 0.002,0 c 0.0074,0.005 0.0088,0.006 0.01172,0.008 -0.0036,-0.002 0.0037,4.4e-4 0.0078,0.002 0.996612,0.36851 2.156556,0.65718 3.478515,0.86523 0,0 0.002,0 0.002,0 6.52e-4,1.1e-4 0.0013,-1e-4 0.002,0 a 0.02925871,0.02925871 0 0 1 0.002,0 c 1.324652,0.19995 2.777026,0.30274 4.355468,0.30274 1.444871,0 2.786413,-0.13191 4.03125,-0.38672 5.01e-4,-1.7e-4 0.0015,1.8e-4 0.002,0 a 0.02925871,0.02925871 0 0 1 0.0098,-0.002 c 0,0 0.002,0 0.002,0 h 0.0098 a 0.02925871,0.02925871 0 0 1 0.002,0 c 0,0 0.002,0 0.002,0 0.0042,-2.8e-4 0.01037,-8.3e-4 0.01563,-0.002 a 0.02925871,0.02925871 0 0 1 0.0078,-0.004 c 1.256762,-0.26768 2.348458,-0.67244 3.273437,-1.21875 0.937694,-0.54912 1.678355,-1.24017 2.214844,-2.07422 a 0.02925871,0.02925871 0 0 1 0,-0.004 c 0.540019,-0.84859 0.812499,-1.85308 0.8125,-2.99609 v -10.81446 c -10e-7,-2.4e-4 -0.0058,-0.0348 -0.0059,-0.0352 -0.001,-0.002 -0.0024,-0.004 -0.0039,-0.008 -2.72e-4,-7e-4 -0.0017,-0.004 -0.002,-0.006 0,0 0,-0.002 0,-0.002 -0.0033,-0.007 -0.0091,-0.0166 -0.0098,-0.0176 -0.0038,-0.006 -0.007,-0.01 -0.01367,-0.0176 -0.01197,-0.0142 -0.02152,-0.0215 -0.02734,-0.0273 -0.0058,-0.006 -0.01323,-0.0154 -0.02734,-0.0273 -0.0089,-0.007 -0.01423,-0.0127 -0.01563,-0.0137 -0.0011,-7.5e-4 -0.01139,-0.006 -0.01953,-0.01 0,0 -0.002,0 -0.002,0 -0.0015,-2.7e-4 -0.0052,-0.002 -0.0059,-0.002 -0.0039,-0.002 -0.0059,-0.003 -0.0078,-0.004 -1.65e-4,-5e-5 -0.01204,-0.001 -0.01563,-0.002 -0.0013,-2.5e-4 -8.91e-4,-0.002 -0.002,-0.002 -0.0014,-4.2e-4 -0.003,3.5e-4 -0.0039,0 l -1.583984,-0.002 c 0,0 -0.01288,0.002 -0.01367,0.002 -6.5e-5,1e-5 -0.0025,-1.6e-4 -0.0039,0 -9.26e-4,3.5e-4 -0.0025,-4.2e-4 -0.0039,0 -0.0011,3.1e-4 -6.96e-4,0.002 -0.002,0.002 -0.0036,7.2e-4 -0.01546,0.002 -0.01563,0.002 a 0.02925871,0.02925871 0 0 1 -0.002,0 c -0.0017,8.8e-4 -0.0027,0.003 -0.0059,0.004 -6.98e-4,2.7e-4 -0.0044,0.002 -0.0059,0.002 0,0 -0.002,0 -0.002,0 -0.0081,0.004 -0.01845,0.009 -0.01953,0.01 -0.0015,9.7e-4 -0.0068,0.006 -0.01563,0.0137 -0.01412,0.0119 -0.02154,0.0216 -0.02734,0.0273 -0.0058,0.006 -0.01537,0.0132 -0.02734,0.0273 -0.0066,0.008 -0.0099,0.012 -0.01367,0.0176 -6.56e-4,9.7e-4 -0.0065,0.0109 -0.0098,0.0176 0,0 0,0.002 0,0.002 -2.72e-4,0.001 -0.0017,0.005 -0.002,0.006 -0.0015,0.004 -0.0029,0.006 -0.0039,0.008 -1.04e-4,3.3e-4 -0.0059,0.0349 -0.0059,0.0352 v 5.35547 c 0.0037,0.0211 0.02187,0.0393 0.04297,0.043 l -0.01758,0.0566 c -0.01975,-0.009 -0.04548,-0.006 -0.06055,0.01 -0.409991,0.59754 -0.865416,1.17208 -1.380859,1.71875 -0.53147,0.56367 -1.121148,1.06324 -1.773437,1.5 -0.0056,0.004 -0.009,0.005 -0.0098,0.006 a 0.02925871,0.02925871 0 0 1 -0.0078,0.006 c -0.0012,3e-4 -0.0027,-3.9e-4 -0.0039,0 -0.655252,0.42853 -1.378827,0.77339 -2.173828,1.0332 -0.790602,0.24985 -1.661909,0.37695 -2.613281,0.37695 -1.231196,0 -2.260525,-0.14832 -3.085938,-0.43554 a 0.02925871,0.02925871 0 0 1 -0.0098,-0.002 c -0.8206,-0.29831 -1.474329,-0.71417 -1.972657,-1.24414 -0.500235,-0.532 -0.861311,-1.17194 -1.085937,-1.92383 a 0.02925871,0.02925871 0 0 1 0,-0.004 l -0.002,-0.004 v -0.002 c 0,0 0,-0.002 0,-0.002 -0.216608,-0.75716 -0.328126,-1.59915 -0.328125,-2.53321 v -3.95508 c 0,-2.4e-4 -0.0058,-0.0348 -0.0059,-0.0352 -0.001,-0.002 -0.0024,-0.004 -0.0039,-0.008 -2.72e-4,-7e-4 -0.0017,-0.004 -0.002,-0.006 0,0 0,-0.002 0,-0.002 -0.0033,-0.007 -0.0091,-0.0166 -0.0098,-0.0176 -0.0038,-0.006 -0.007,-0.01 -0.01367,-0.0176 -0.01197,-0.0142 -0.02155,-0.0216 -0.02734,-0.0273 -0.0058,-0.006 -0.01323,-0.0154 -0.02734,-0.0273 -0.0077,-0.006 -0.01131,-0.01 -0.01367,-0.0117 a 0.02925871,0.02925871 0 0 1 -0.0039,-0.002 c -0.0028,-0.002 -0.01146,-0.007 -0.01758,-0.01 0,0 -0.002,0 -0.002,0 -0.0015,-2.7e-4 -0.0052,-0.002 -0.0059,-0.002 -0.0039,-0.002 -0.0059,-0.003 -0.0078,-0.004 -1.65e-4,-5e-5 -0.01204,-0.001 -0.01563,-0.002 -0.0013,-2.5e-4 -8.92e-4,-0.002 -0.002,-0.002 -7.08e-4,-2.1e-4 -0.0014,2e-4 -0.002,0 h -0.002 l -1.583984,-0.002 z M 9.3027344,115.3457 a 0.02925871,0.02925871 0 0 1 0.019531,0.0156 c 0.019583,0.0431 0.052803,0.0742 0.09375,0.0742 h 6.3085934 c 1.169858,0 2.180544,0.0447 3.023438,0.13476 0.827829,0.0875 1.492441,0.26333 2.017578,0.51563 0.0058,0.001 0.01177,8.5e-4 0.01758,0 a 0.02925871,0.02925871 0 0 1 0.02148,0.006 c 6.54e-4,4.5e-4 0.0019,0.004 0.0039,0.006 a 0.02925871,0.02925871 0 0 1 0.0039,0.002 c 8.46e-4,6.1e-4 0.0017,0.002 0.002,0.002 0.52189,0.24704 0.899778,0.59684 1.144531,1.04688 0.0061,0.008 0.01404,0.0142 0.02344,0.0176 a 0.02925871,0.02925871 0 0 1 0.01563,0.041 c -0.0071,0.0144 -0.0071,0.0305 0,0.0449 0.22945,0.4552 0.359375,1.04084 0.359375,1.78907 0,0.67016 -0.100257,1.21225 -0.296875,1.63476 a 0.02925871,0.02925871 0 0 1 0,0.002 0.02925871,0.02925871 0 0 1 -0.0039,0.0156 c -7.5e-5,1.2e-4 -0.0015,0.005 -0.0059,0.0156 -0.0034,0.008 -0.0072,0.0131 -0.0078,0.0156 a 0.02925871,0.02925871 0 0 1 -0.01563,0.0195 c -0.0091,0.004 -0.01789,0.009 -0.02344,0.0176 -0.192346,0.39693 -0.433056,0.7237 -0.742187,0.96875 a 0.02925871,0.02925871 0 0 1 -0.002,0.002 0.02925871,0.02925871 0 0 1 -0.0039,0.004 c -0.328288,0.26527 -0.7121,0.46342 -1.154297,0.59765 a 0.02925871,0.02925871 0 0 1 -0.0039,0 l -0.0078,0.002 c -0.441756,0.12774 -0.90766,0.21907 -1.398438,0.27539 a 0.02925871,0.02925871 0 0 1 -0.0039,0 h -0.002 c -0.493272,0.0482 -0.993678,0.074 -1.503906,0.0742 0,0 -0.002,0 -0.002,0 -0.513604,-0.008 -0.999429,-0.0117 -1.455079,-0.0117 H 9.4160156 c -0.04095,0 -0.074166,0.0311 -0.09375,0.0742 a 0.02925871,0.02925871 0 0 1 -0.039063,0.0156 c -0.00389,-0.002 -0.00549,-0.003 -0.00391,-0.002 a 0.02925871,0.02925871 0 0 1 -0.00391,-0.002 c -0.00568,-0.004 -0.00932,-0.006 -0.011719,-0.008 -0.0039,-0.002 -0.00677,-0.004 -0.00977,-0.006 a 0.02925871,0.02925871 0 0 1 -0.00195,-0.002 c -0.00295,-0.002 -0.00551,-0.004 -0.00781,-0.006 a 0.02925871,0.02925871 0 0 1 -0.00391,-0.002 c -5.146e-4,-4e-4 -0.00221,-0.002 -0.00391,-0.004 0,0 -0.00195,-0.002 -0.00195,-0.002 a 0.02925871,0.02925871 0 0 1 -0.00195,0 c -0.00232,-0.002 -0.00619,-0.007 -0.011719,-0.0117 a 0.02925871,0.02925871 0 0 1 -0.00586,-0.002 l -0.00195,-0.002 -0.00195,-0.002 a 0.02925871,0.02925871 0 0 1 0,-0.002 c -7.89e-5,-9e-5 2.477e-4,-0.002 0,-0.002 0,0 -0.00195,-0.002 -0.00195,-0.002 -4.543e-4,-2.9e-4 -0.00119,-0.001 -0.00195,-0.002 0,0 -0.00195,-0.002 -0.00195,-0.002 -3.264e-4,-2.5e-4 -0.00186,8e-5 -0.00195,0 a 0.02925871,0.02925871 0 0 1 -0.00195,0 l -0.00195,-0.002 -0.00195,-0.002 a 0.02925871,0.02925871 0 0 1 -0.00195,-0.006 c -0.0049,-0.006 -0.00945,-0.009 -0.011719,-0.0117 a 0.02925871,0.02925871 0 0 1 0,-0.002 c 0,0 -0.00195,-0.002 -0.00195,-0.002 -0.00163,-0.002 -0.00351,-0.003 -0.00391,-0.004 a 0.02925871,0.02925871 0 0 1 0,-0.002 l -0.00195,-0.002 c -0.00181,-0.002 -0.00353,-0.005 -0.00586,-0.008 a 0.02925871,0.02925871 0 0 1 -0.00195,-0.002 c -0.00173,-0.003 -0.00353,-0.006 -0.00586,-0.01 -0.00143,-0.002 -0.00424,-0.006 -0.00781,-0.0117 -2.573e-4,-4.1e-4 -0.00118,-0.002 -0.00195,-0.004 0,0 0,-0.002 0,-0.002 a 0.02925871,0.02925871 0 0 1 0.013672,-0.041 c 0.043099,-0.0196 0.074219,-0.0528 0.074219,-0.0937 v -6.88672 c 0,-0.0409 -0.031116,-0.0742 -0.074219,-0.0937 a 0.02925871,0.02925871 0 0 1 -0.013672,-0.041 c 0,0 0,-0.002 0,-0.002 7.719e-4,-0.002 0.0017,-0.003 0.00195,-0.004 0.00356,-0.006 0.00637,-0.009 0.00781,-0.0117 0.00232,-0.004 0.00412,-0.007 0.00586,-0.01 a 0.02925871,0.02925871 0 0 1 0.00195,-0.002 c 0.00233,-0.003 0.00404,-0.006 0.00586,-0.008 a 0.02925871,0.02925871 0 0 1 0.00195,-0.004 c 3.946e-4,-5.1e-4 0.00229,-0.002 0.00391,-0.004 0,0 0.00195,-0.002 0.00195,-0.002 a 0.02925871,0.02925871 0 0 1 0,-0.002 c 0.00229,-0.002 0.00683,-0.006 0.011719,-0.0117 a 0.02925871,0.02925871 0 0 1 0.00195,-0.006 l 0.00195,-0.002 0.00195,-0.002 a 0.02925871,0.02925871 0 0 1 0.00195,0 c 2.457e-4,-2.1e-4 0.0027,-0.001 0.00391,-0.002 v -0.002 c 2.013e-4,-2.8e-4 0.00173,3.1e-4 0.00195,0 0,0 0.00195,-0.002 0.00195,-0.002 2.509e-4,-3.2e-4 -7.89e-5,-0.002 0,-0.002 a 0.02925871,0.02925871 0 0 1 0,-0.002 l 0.00195,-0.002 0.00195,-0.002 a 0.02925871,0.02925871 0 0 1 0.00586,-0.002 c 0.00553,-0.005 0.00939,-0.009 0.011719,-0.0117 a 0.02925871,0.02925871 0 0 1 0.00391,-0.002 c 0.00166,-0.002 0.00339,-0.004 0.00391,-0.004 a 0.02925871,0.02925871 0 0 1 0.00391,-0.002 c 0.00228,-0.002 0.00488,-0.004 0.00781,-0.006 a 0.02925871,0.02925871 0 0 1 0.00195,-0.002 c 0.00296,-0.002 0.00588,-0.004 0.00977,-0.006 0.00239,-0.001 0.00598,-0.004 0.011719,-0.008 4.132e-4,-2.6e-4 0.00235,-0.001 0.00391,-0.002 a 0.02925871,0.02925871 0 0 1 0.023437,-0.002 z M 27.667969,120 c 0,0 0,0.002 0,0.002 L 27.683594,120 c -0.0077,9.2e-4 -0.01561,1e-4 -0.01563,0 z m 0.753906,1.55664 a 0.02925871,0.02925871 0 0 1 0.02734,0.0137 l 0.06641,0.10547 a 0.02925871,0.02925871 0 0 1 -0.0098,0.041 l -0.06641,0.043 a 0.02925871,0.02925871 0 0 1 -0.0293,-0.004 l -0.0098,0.0332 a 0.02925871,0.02925871 0 0 1 -0.04492,0.0156 l -0.0625,-0.0469 a 0.02925871,0.02925871 0 0 1 0,-0.0469 c 0.0072,-0.006 0.01563,-0.0117 0.01563,-0.0117 a 0.02925871,0.02925871 0 0 1 0.0098,-0.004 c 0,0 0.01693,-0.006 0.03516,-0.0117 a 0.02925871,0.02925871 0 0 1 -0.002,-0.006 l 0.04492,-0.10351 a 0.02925871,0.02925871 0 0 1 0.02539,-0.0176 z m -9.724609,1.11719 a 0.02925871,0.02925871 0 0 1 0.02539,0.008 l 0.07617,0.0762 a 0.02925871,0.02925871 0 0 1 -0.01563,0.0508 l -0.140625,0.0312 a 0.02925871,0.02925871 0 0 1 -0.03125,-0.0449 l 0.06445,-0.10742 a 0.02925871,0.02925871 0 0 1 0.02148,-0.0137 z m 14.136718,0.8457 c 4.68e-4,2e-5 0.0053,0.002 0.0059,0.002 5.17e-4,1.2e-4 0.0041,0.001 0.0059,0.002 0.0036,0.001 0.0071,0.002 0.0098,0.004 0.01063,0.007 0.01835,0.0152 0.03516,0.0312 a 0.02925871,0.02925871 0 0 1 0.0078,0.0312 l -0.03906,0.11914 a 0.02925871,0.02925871 0 0 1 -0.04883,0.01 l -0.08398,-0.0996 a 0.02925871,0.02925871 0 0 1 -0.0059,-0.0312 l 0.01953,-0.041 a 0.02925871,0.02925871 0 0 1 0.03125,-0.0176 c 0.01901,0.003 0.02806,0.003 0.03125,0.002 0.0032,-8.5e-4 4.7e-4,-0.001 0.0078,-0.006 0.0018,-0.001 0.0089,-0.004 0.0098,-0.004 8.32e-4,-3e-4 0.01274,-0.002 0.01367,-0.002 z m 7.958985,0.68555 a 0.02925871,0.02925871 0 0 1 0.03711,0.0332 l -0.01758,0.082 a 0.02925871,0.02925871 0 0 1 -0.04687,0.0176 l -0.07227,-0.0566 a 0.02925871,0.02925871 0 0 1 0.0098,-0.0508 z m -7.710938,0.99414 0.03125,0.0137 a 0.02925871,0.02925871 0 0 1 0.0039,0.0527 l -0.0098,0.006 0.01172,0.0195 a 0.02925871,0.02925871 0 0 1 -0.02539,0.0449 h -0.05664 a 0.02925871,0.02925871 0 0 1 -0.02734,-0.0371 c 0.0032,-0.011 0.0054,-0.013 0.0078,-0.0215 a 0.02925871,0.02925871 0 0 1 0.0039,-0.002 0.02925871,0.02925871 0 0 1 -0.002,-0.008 c 0.0046,-0.0159 0.0094,-0.028 0.0098,-0.0293 a 0.02925871,0.02925871 0 0 1 0.01172,-0.0117 0.02925871,0.02925871 0 0 1 0.04102,-0.0273 z m -5.46875,4.97266 c -0.0016,0.001 -0.0035,0.004 -0.0039,0.004 0,0 0.003,-0.001 0.0039,-0.002 a 0.02925871,0.02925871 0 0 1 0,-0.002 z" />
    <rect
       style="fill:none;fill-opacity:1;stroke:none;stroke-width:0.264583;stroke-opacity:1"
       id="rect44747"
       width="139.58867"
       height="37.325478"
       x="26.243889"
       y="103.80796" />
  </g>
</svg>
